<?xml version="1.0" encoding="UTF-8" standalone="no"?>
<svg
   width="640"
   height="256"
   viewBox="0 0 640 256"
   fill="none"
   version="1.1"
   id="svg8"
   sodipodi:docname="elysium.svg"
   inkscape:version="1.3.2 (091e20ef0f, 2023-11-25)"
   xmlns:inkscape="http://www.inkscape.org/namespaces/inkscape"
   xmlns:sodipodi="http://sodipodi.sourceforge.net/DTD/sodipodi-0.dtd"
   xmlns:xlink="http://www.w3.org/1999/xlink"
   xmlns="http://www.w3.org/2000/svg"
   xmlns:svg="http://www.w3.org/2000/svg">
  <sodipodi:namedview
     id="namedview8"
     pagecolor="#505050"
     bordercolor="#ffffff"
     borderopacity="1"
     inkscape:showpageshadow="0"
     inkscape:pageopacity="0"
     inkscape:pagecheckerboard="1"
     inkscape:deskcolor="#d1d1d1"
     inkscape:zoom="2.0019961"
     inkscape:cx="325.67496"
     inkscape:cy="155.84446"
     inkscape:window-width="1906"
     inkscape:window-height="970"
     inkscape:window-x="6"
     inkscape:window-y="6"
     inkscape:window-maximized="1"
     inkscape:current-layer="svg8" />
  <path
     d="M 233.025,85.182 C 228.831,84.3261 223.362,84 219.703,84 c -30.756,0 -51.068,18.138 -51.068,45.855 0,17.852 7.22026,27.8042 8.20521,27.11906 L 182.779,152.843 c -6.13573,5.21819 -11.595,7.663 -20.106,10.353 -1.974,0.611 -2.673,1.956 -2.673,3.383 0,3.016 2.631,5.421 6.25,5.421 5.674,0 15.542,-8.07 19.531,-12.269 16.611,-17.852 6.784,-45.039 25.123,-52.05 1.398,-0.53 2.631,0.938 1.233,2.283 -14.186,14.062 -2.22,32.159 -18.585,49.767 -1.233,1.386 -0.576,3.016 0.904,3.261 1.193,0.204 3.085,0.326 4.894,0.326 20.065,0 29.727,-13.858 29.727,-33.341 0,-6.522 -1.603,-14.144 -1.603,-20.135 0,-6.563 0.534,-13.9402 6.866,-19.8096 1.727,-1.6711 1.481,-4.1982 -1.315,-4.8504 z"
     fill="url(#paint0_linear_3753_254)"
     id="path1"
     style="stroke:url(#linearGradient15);stroke-opacity:1"
     sodipodi:nodetypes="csssccsscccccssscc" />
  <text
     xml:space="preserve"
     style="font-size:63.135px;font-family:'Old English';-inkscape-font-specification:'Old English';display:inline;fill:url(#linearGradient10);stroke:#ffffff;stroke-width:1.32682;stroke-linejoin:bevel"
     x="238.15044"
     y="143.76907"
     id="text8"><tspan
       sodipodi:role="line"
       id="tspan8"
       x="0"
       y="0"
       style="font-style:normal;font-variant:normal;font-weight:bold;font-stretch:normal;font-size:63.135px;font-family:Sans;-inkscape-font-specification:'Sans, Bold';font-variant-ligatures:normal;font-variant-caps:normal;font-variant-numeric:normal;font-variant-east-asian:normal;fill:url(#linearGradient10);fill-opacity:1;stroke:none;stroke-width:1.32682">elysium</tspan></text>
  <path
     d="m 242.5,138.312 c -0.708,0 -1.396,-0.104 -2.062,-0.312 -2.084,-0.917 -3.126,-2.542 -3.126,-4.875 0,-1.542 0.563,-3.396 1.688,-5.563 1.542,-3 3.646,-5.624 6.312,-7.874 2.667,-2.292 4.959,-3.438 6.876,-3.438 0.958,0 1.666,0.354 2.124,1.062 0.084,0.126 0.126,0.271 0.126,0.438 0,2 -0.813,3.792 -2.438,5.375 -2.125,2.125 -4.792,3.687 -8,4.687 -1,0.292 -1.562,0.626 -1.688,1 -0.833,1.667 -1.25,3.126 -1.25,4.376 0,0.541 0.167,0.958 0.5,1.25 0.292,0.25 1,0.374 2.126,0.374 2.333,0 5.02,-1.229 8.062,-3.687 1.292,-1.042 3.396,-2.896 6.312,-5.563 2,-1.916 3.23,-2.874 3.688,-2.874 0.458,0 0.688,0.229 0.688,0.687 0,0.292 -1.688,2.083 -5.063,5.375 -3.25,3.208 -5.563,5.333 -6.937,6.375 -2.959,2.125 -5.605,3.187 -7.938,3.187 z m 2.188,-13.124 c 2.708,-1.292 4.687,-2.521 5.937,-3.688 1.25,-1.208 1.875,-2.104 1.875,-2.688 0,-0.041 -0.021,-0.062 -0.062,-0.062 -0.626,0 -1.938,0.812 -3.938,2.438 -1.458,1.25 -2.729,2.583 -3.812,4 z m 20.874,27.937 c -1.25,0 -2.437,-0.313 -3.562,-0.937 -2.833,-1.584 -4.25,-4.98 -4.25,-10.188 0,-5.542 1.375,-13.417 4.125,-23.625 2.458,-8.792 5.146,-17 8.063,-24.625 3.708,-9.6667 6.479,-14.5 8.312,-14.5 1,0 1.5,0.6458 1.5,1.9375 0,1 -0.521,3.1458 -1.562,6.4375 -2.126,7.4167 -4.813,13.646 -8.063,18.687 -0.833,1.209 -1.437,2.376 -1.813,3.5 -0.25,0.709 -0.562,1.709 -0.937,3 -3.958,13.417 -5.937,22.959 -5.937,28.626 0,0.708 0.083,1.812 0.25,3.312 0.416,3.417 1.916,5.125 4.5,5.125 2.291,0 5.104,-1.479 8.437,-4.437 2.667,-2.292 7.896,-7.542 15.687,-15.75 4.334,-4.626 6.73,-6.938 7.188,-6.938 0.167,0 0.312,0.062 0.438,0.188 0.124,0.124 0.187,0.229 0.187,0.312 0,0.333 -1.187,1.854 -3.563,4.562 -5,5.709 -9.708,10.792 -14.124,15.25 -3.667,3.75 -6.542,6.313 -8.626,7.688 -2.374,1.583 -4.458,2.375 -6.25,2.375 z m 5.876,-52.75 c 0.124,0 0.52,-0.9167 1.187,-2.75 0.958,-2.625 1.479,-4.1458 1.563,-4.5625 0.124,-0.4167 0.187,-0.6458 0.187,-0.6875 -0.083,0 -0.604,1.3542 -1.563,4.0625 -0.916,2.5 -1.374,3.8125 -1.374,3.9375 z m 32.124,62.813 c -1.708,0 -2.562,-0.896 -2.562,-2.688 0,-4.708 4.062,-11.417 12.188,-20.125 2.666,-9.875 4.312,-17 4.937,-21.375 -0.042,0 -0.229,0.208 -0.563,0.625 -0.958,1.292 -2.624,3.354 -5,6.187 -5.374,6.542 -9.124,10.521 -11.25,11.938 -1.166,0.75 -2.145,1.125 -2.937,1.125 -3.125,0 -4.687,-1.563 -4.687,-4.687 0,-1 0.166,-2.188 0.5,-3.563 1.416,-5.542 2.812,-10.313 4.187,-14.313 1.375,-4 2.292,-6.041 2.75,-6.124 0.5,-0.084 0.813,-0.126 0.937,-0.126 0.959,0 1.438,0.438 1.438,1.313 0,1.167 -0.583,3.646 -1.75,7.437 -2.542,8.25 -3.812,13.313 -3.812,15.188 0,0.958 0.27,1.458 0.812,1.5 1.042,0 5.771,-5.083 14.188,-15.25 3.416,-4.208 5.374,-6.354 5.874,-6.438 0.5,-0.083 0.855,-0.124 1.063,-0.124 0.792,0.041 1.313,0.145 1.563,0.312 0.291,0.167 0.437,0.667 0.437,1.5 0,1.583 -1.229,8.188 -3.687,19.812 v 0.813 c 0.083,0 0.583,-0.396 1.5,-1.187 5,-4.084 10.729,-7.605 17.187,-10.563 2.417,-1.125 3.813,-1.687 4.187,-1.687 0.167,0 0.313,0.124 0.438,0.374 0,0.417 -1.979,1.584 -5.938,3.5 -7.791,4.167 -13.604,8.167 -17.437,12 -0.667,0.626 -1,1.042 -1,1.25 0,0.167 -0.583,2.021 -1.75,5.563 -3.833,11.833 -7.771,17.771 -11.813,17.813 z m -0.374,-2.563 c 0.041,0 0.333,-0.208 0.874,-0.625 1.792,-1.708 3.876,-5.562 6.25,-11.562 0.417,-0.834 0.917,-2.209 1.5,-4.126 -0.083,0 -0.562,0.563 -1.437,1.688 -3.292,3.958 -5.521,7.479 -6.687,10.562 -0.5,1.376 -0.75,2.48 -0.75,3.313 0,0.5 0.083,0.75 0.25,0.75 z m 42.124,-14.437 h -0.624 c -2.667,0 -4.313,-1 -4.938,-3 -0.083,-0.25 -0.125,-0.5 -0.125,-0.75 0,-2.334 3.042,-5.563 9.125,-9.688 1.625,-1.125 2.438,-1.708 2.438,-1.75 0,-0.083 -0.792,-0.562 -2.376,-1.438 -5.291,-2.874 -8.187,-5.145 -8.687,-6.812 -0.25,-0.667 -0.375,-1.292 -0.375,-1.875 0,-1.5 0.771,-2.896 2.312,-4.187 1.75,-1.334 4,-2.646 6.75,-3.938 1.792,-0.708 3.146,-1.062 4.063,-1.062 0.542,0 0.813,0.166 0.813,0.5 0,0.083 -0.021,0.145 -0.063,0.187 -0.083,0.25 -0.292,0.437 -0.625,0.563 -0.583,0.291 -1.562,0.833 -2.938,1.624 -1.333,0.792 -2.52,1.542 -3.562,2.25 -1.042,0.667 -1.896,1.355 -2.562,2.063 -0.667,0.708 -1,1.25 -1,1.625 0,1.208 2.104,2.896 6.312,5.062 0.792,0.417 2.667,1.48 5.625,3.188 3.042,-1.667 6.083,-3.167 9.125,-4.5 2.375,-1.042 3.875,-1.583 4.5,-1.625 0.375,0.083 0.562,0.271 0.562,0.563 0,0.25 -0.208,0.52 -0.624,0.812 -0.376,0.25 -2.313,1.229 -5.813,2.938 -3.875,1.874 -5.813,2.874 -5.813,3 0,0.208 0.23,0.562 0.688,1.062 1,1.125 1.625,2.208 1.875,3.25 0.042,0.333 0.063,0.896 0.063,1.688 0,1.25 -0.188,2.229 -0.563,2.937 -0.75,1.417 -2.146,2.771 -4.187,4.063 -2.042,1.291 -4.334,2.27 -6.876,2.937 -0.791,0.208 -1.624,0.313 -2.5,0.313 z m -2.187,-3.063 c 1.333,0 3.25,-0.542 5.75,-1.625 l 2.187,-0.938 c 3.167,-1.541 4.75,-3.124 4.75,-4.75 0,-0.958 -0.604,-1.958 -1.812,-3 -0.458,-0.333 -0.75,-0.5 -0.875,-0.5 -0.542,0 -2.687,1.438 -6.437,4.313 -1.5,1.208 -2.709,2.354 -3.626,3.437 -0.874,1.084 -1.312,1.855 -1.312,2.313 0,0.5 0.458,0.75 1.375,0.75 z m 28.687,0.5 c -3.416,0 -5.5,-1.979 -6.25,-5.937 -0.166,-0.876 -0.27,-1.771 -0.312,-2.688 0.125,-6.333 1.667,-12.938 4.625,-19.812 1.167,-2.834 2.583,-4.25 4.25,-4.25 0.208,0 0.396,0.104 0.563,0.312 0.291,0.167 0.437,0.396 0.437,0.688 0,0.458 -0.229,1.27 -0.687,2.437 -0.626,1.625 -1.313,3.792 -2.063,6.5 -1.458,5.458 -2.187,9.896 -2.187,13.313 0,2.458 0.333,4.229 1,5.312 0.416,0.417 0.979,0.625 1.687,0.625 1.833,0 4.563,-1.375 8.187,-4.125 1.25,-0.958 4.063,-3.292 8.438,-7 4.833,-4.25 7.562,-6.375 8.188,-6.375 0.291,0 0.437,0.167 0.437,0.5 0,0.417 -1.063,1.563 -3.187,3.437 -2.126,1.834 -5.063,4.438 -8.813,7.813 -4,3.625 -6.687,5.854 -8.063,6.687 -2.416,1.709 -4.5,2.563 -6.25,2.563 z m 4.25,-35.375 c -0.624,0 -1.145,-0.354 -1.562,-1.062 -0.167,-0.292 -0.25,-0.542 -0.25,-0.75 0,-0.209 0.062,-0.5 0.188,-0.876 0.416,-1.208 1.187,-1.812 2.312,-1.812 1.042,0 1.667,0.542 1.875,1.625 l 0.063,0.375 c 0,0.667 -0.438,1.292 -1.313,1.875 -0.458,0.417 -0.896,0.625 -1.313,0.625 z m 34.5,33.562 c -1.291,0 -2.416,-0.5 -3.374,-1.5 -1.209,-1.208 -1.813,-2.958 -1.813,-5.25 0,-2.25 0.521,-5.437 1.563,-9.562 -0.042,0 -0.771,1.042 -2.188,3.125 -2.708,4.167 -4.583,6.667 -5.625,7.5 -0.875,0.667 -1.708,1 -2.5,1 -1.208,0 -2.021,-0.687 -2.437,-2.063 -0.084,-0.333 -0.126,-0.729 -0.126,-1.187 0,-1.25 0.25,-2.958 0.75,-5.125 0.667,-3 1.542,-5.979 2.626,-8.938 1.083,-3 2.104,-5.104 3.062,-6.312 0.375,-0.417 0.667,-0.625 0.875,-0.625 0.208,-0.042 0.333,-0.063 0.375,-0.063 0.5,0 0.75,0.271 0.75,0.813 0,0.5 -0.333,1.771 -1,3.813 -2.417,7.708 -3.625,12.77 -3.625,15.187 0.208,0 0.875,-0.625 2,-1.875 1.125,-1.25 2.5,-2.979 4.125,-5.188 1.625,-2.25 4.042,-5.604 7.25,-10.062 0.333,-0.458 0.667,-0.688 1,-0.688 0.208,0 0.354,0.042 0.438,0.126 0.124,0.083 0.229,0.208 0.312,0.374 0.083,0.126 0.125,0.271 0.125,0.438 0,0.625 -0.521,2.396 -1.563,5.312 -1.708,5.334 -2.666,9.396 -2.874,12.188 l -0.063,1.938 c 0,0.958 0.063,1.708 0.187,2.25 0.334,1.083 1.042,1.624 2.126,1.624 3.791,0 9.708,-4.666 17.75,-14 1.416,-1.624 2.25,-2.437 2.5,-2.437 0.25,0 0.437,0.125 0.562,0.375 0,0.708 -2.167,3.438 -6.5,8.188 -6.5,7.083 -11.396,10.624 -14.688,10.624 z m 18.25,-0.437 c -1.374,0 -2.062,-0.854 -2.062,-2.563 0,-2.666 1.021,-7.937 3.062,-15.812 2,-7.875 3.146,-11.896 3.438,-12.062 0.333,-0.209 0.708,-0.313 1.125,-0.313 0.75,0 1.187,0.313 1.313,0.937 0,0.376 -1.563,7.563 -4.688,21.563 0.167,0 1.667,-2.313 4.5,-6.937 2.833,-4.626 5.042,-7.688 6.625,-9.188 1.625,-1.542 3.187,-2.312 4.687,-2.312 1.417,0 2.126,1.374 2.126,4.124 0,0.834 -0.146,2.73 -0.438,5.688 -0.25,2.917 -0.375,4.708 -0.375,5.375 0,0.917 0.187,1.375 0.563,1.375 1.25,-0.083 4.437,-3 9.562,-8.75 5.125,-5.792 8.312,-9.083 9.562,-9.875 1.292,-0.833 2.376,-1.271 3.25,-1.313 1,0 1.563,0.771 1.688,2.313 0,1.667 -1.208,7 -3.625,16 -1.083,3.833 -1.625,6.292 -1.625,7.375 0,0.458 0.125,0.688 0.375,0.688 0.667,-0.042 3.021,-2.646 7.063,-7.813 3.833,-4.875 5.958,-7.313 6.374,-7.313 0.292,0 0.459,0.146 0.5,0.438 0,0.333 -3.729,5.167 -11.187,14.5 -1.708,2.083 -3.313,3.125 -4.813,3.125 -1.666,0 -2.5,-1.042 -2.5,-3.125 0,-2.667 1.459,-8.875 4.376,-18.625 0.624,-1.958 0.937,-3.354 0.937,-4.187 0,-0.5 -0.104,-0.75 -0.313,-0.75 -0.624,0.041 -3.645,3.333 -9.062,9.874 -5.375,6.5 -9.542,9.75 -12.5,9.75 -1.042,0 -1.812,-0.229 -2.312,-0.687 -0.459,-0.5 -0.688,-1.583 -0.688,-3.25 0,-1.167 0.104,-2.604 0.312,-4.313 0.25,-2.041 0.376,-3.604 0.376,-4.687 0,-1.292 -0.167,-1.937 -0.5,-1.937 -0.667,0 -2.688,3.145 -6.063,9.437 -4.167,7.667 -6.604,11.792 -7.313,12.375 -0.708,0.583 -1.291,0.875 -1.75,0.875 z"
     fill="url(#paint1_linear_3753_254)"
     id="path2"
     style="display:inline;stroke:#ffffff;stroke-opacity:1;fill:#f1f1f1;fill-opacity:1" />
  <path
     d="m 256.304,111.128 c 10.944,0 17.536,7.808 16,18.816 H 249.84 c 0.704,3.2 2.816,5.696 7.04,5.696 2.304,0 3.648,-0.512 4.608,-1.664 h 10.496 c -1.856,6.08 -7.616,9.856 -14.912,9.856 -10.176,0 -16.96,-6.912 -16.96,-16.384 0,-9.408 6.592,-16.32 16.192,-16.32 z m 0.256,7.68 c -3.648,0 -5.76,2.048 -6.592,5.184 h 12.928 c -0.576,-3.584 -2.816,-5.184 -6.336,-5.184 z M 278.02,97.56 h 10.432 V 143 H 278.02 Z m 41.776,14.4 h 10.944 l -19.328,45.824 h -10.88 l 6.464,-15.424 -15.168,-30.4 h 11.008 l 8.832,19.264 z m 20.703,20.416 c 0.448,2.688 2.88,3.84 6.144,3.84 2.752,0 4.48,-0.768 4.48,-2.112 0,-1.088 -1.216,-1.856 -3.264,-2.176 l -6.272,-1.088 c -5.312,-0.896 -9.088,-3.904 -9.088,-9.344 0,-6.528 5.568,-10.368 13.824,-10.368 7.36,0 14.016,2.496 14.464,10.688 h -9.152 c -0.192,-2.304 -2.432,-3.328 -5.312,-3.328 -2.688,0 -3.904,0.96 -3.904,2.112 0,1.088 0.768,2.048 3.264,2.496 l 5.76,0.96 c 5.76,1.088 9.664,3.904 9.664,9.408 0,7.168 -6.4,10.368 -14.528,10.368 -8,0 -14.592,-3.264 -15.296,-11.52 z m 32.351,-25.28 c -3.392,0 -6.08,-2.496 -6.08,-5.824 0,-3.392 2.688,-5.888 6.08,-5.888 3.328,0 6.08,2.496 6.08,5.888 0,3.328 -2.752,5.824 -6.08,5.824 z m -5.12,4.864 h 10.368 V 143 H 367.73 Z m 39.666,0 h 10.368 V 143 h -10.368 v -2.176 c -2.496,1.92 -5.184,3.008 -8.512,3.008 -7.872,0 -13.248,-5.44 -13.248,-14.272 v -17.6 h 10.368 v 16 c 0,4.416 2.304,6.528 5.696,6.528 1.92,0 3.904,-1.088 5.696,-3.072 z m 55.645,-0.832 c 8.064,0 13.312,4.928 13.312,13.888 V 143 h -10.368 v -16.704 c 0,-4.224 -2.176,-5.76 -5.12,-5.76 -1.856,0 -3.52,0.576 -5.12,2.368 0.064,0.576 0.064,1.152 0.064,1.792 V 143 h -10.368 v -17.024 c 0,-4.224 -2.176,-5.44 -4.8,-5.44 -2.048,0 -3.84,0.768 -5.376,2.624 V 143 h -10.432 v -31.04 h 10.432 v 1.92 c 2.176,-1.728 4.544,-2.752 8,-2.752 3.968,0 7.232,1.28 9.472,3.84 3.072,-2.624 6.272,-3.84 10.304,-3.84 z"
     fill="#f1f1f1"
     id="path3"
     style="display:none" />
  <defs
     id="defs8">
    <linearGradient
       id="linearGradient14"
       inkscape:collect="always">
      <stop
         style="stop-color:#ffffff;stop-opacity:1;"
         offset="0"
         id="stop14" />
      <stop
         style="stop-color:#ffffff;stop-opacity:0.3793121;"
         offset="1"
         id="stop15" />
    </linearGradient>
    <linearGradient
       id="linearGradient8"
       inkscape:collect="always">
      <stop
         style="stop-color:#bf76ff;stop-opacity:1;"
         offset="0.2707907"
         id="stop9" />
      <stop
         style="stop-color:#af5cff;stop-opacity:1;"
         offset="0.57283282"
         id="stop11" />
      <stop
         style="stop-color:#5421fd;stop-opacity:1;"
         offset="1"
         id="stop10" />
    </linearGradient>
    <linearGradient
       id="paint0_linear_3753_254"
       x1="183.208"
       y1="92.2046"
       x2="214.888"
       y2="175.989"
       gradientUnits="userSpaceOnUse">
      <stop
         stop-color="#FFD476"
         id="stop3"
         offset="0.17607909"
         style="stop-color:#bf76ff;stop-opacity:1;" />
      <stop
         offset="0.43454424"
         stop-color="#FFCC5C"
         id="stop4"
         style="stop-color:#a35cff;stop-opacity:1;" />
      <stop
         offset="1"
         stop-color="#B36F02"
         id="stop5"
         style="stop-color:#2c02b3;stop-opacity:1;" />
    </linearGradient>
    <linearGradient
       id="paint1_linear_3753_254"
       x1="361"
       y1="77.3293"
       x2="361"
       y2="157"
       gradientUnits="userSpaceOnUse">
      <stop
         stop-color="#FFD476"
         id="stop6"
         offset="0.31891769"
         style="stop-color:#bf76ff;stop-opacity:1;" />
      <stop
         offset="0.7397998"
         stop-color="#FFCC5C"
         id="stop7"
         style="stop-color:#af5cff;stop-opacity:1;" />
      <stop
         offset="0.95564991"
         stop-color="#B36F02"
         id="stop8"
         style="stop-color:#5421fd;stop-opacity:1;" />
    </linearGradient>
    <linearGradient
       inkscape:collect="always"
       xlink:href="#linearGradient8"
       id="linearGradient10"
       x1="367.05872"
       y1="96.423599"
       x2="367.55508"
       y2="159.41026"
       gradientUnits="userSpaceOnUse" />
    <linearGradient
       inkscape:collect="always"
       xlink:href="#linearGradient14"
       id="linearGradient15"
       x1="159.5"
       y1="128"
       x2="235.92986"
       y2="128"
       gradientUnits="userSpaceOnUse" />
  </defs>
</svg>
