<?xml version="1.0" encoding="UTF-8" standalone="no"?>
<svg
   width="128"
   height="128"
   viewBox="0 0 128 128"
   fill="none"
   version="1.1"
   id="svg3"
   sodipodi:docname="elysium-leaf.svg"
   inkscape:version="1.3.2 (091e20ef0f, 2023-11-25)"
   xmlns:inkscape="http://www.inkscape.org/namespaces/inkscape"
   xmlns:sodipodi="http://sodipodi.sourceforge.net/DTD/sodipodi-0.dtd"
   xmlns:xlink="http://www.w3.org/1999/xlink"
   xmlns="http://www.w3.org/2000/svg"
   xmlns:svg="http://www.w3.org/2000/svg">
  <sodipodi:namedview
     id="namedview3"
     pagecolor="#505050"
     bordercolor="#ffffff"
     borderopacity="1"
     inkscape:showpageshadow="0"
     inkscape:pageopacity="0"
     inkscape:pagecheckerboard="1"
     inkscape:deskcolor="#d1d1d1"
     inkscape:zoom="5.96875"
     inkscape:cx="64"
     inkscape:cy="64"
     inkscape:window-width="1906"
     inkscape:window-height="970"
     inkscape:window-x="6"
     inkscape:window-y="6"
     inkscape:window-maximized="1"
     inkscape:current-layer="svg3" />
  <defs
     id="defs3">
    <linearGradient
       id="paint0_linear_3753_324"
       x1="48.2079"
       y1="28.2046"
       x2="79.8879"
       y2="111.989"
       gradientUnits="userSpaceOnUse">
      <stop
         stop-color="#FFD476"
         id="stop1" />
      <stop
         offset="0.345"
         stop-color="#FFCC5C"
         id="stop2" />
      <stop
         offset="1"
         stop-color="#B36F02"
         id="stop3" />
    </linearGradient>
    <linearGradient
       id="paint0_linear_3753_254"
       x1="183.20799"
       y1="92.204597"
       x2="214.888"
       y2="175.989"
       gradientUnits="userSpaceOnUse"
       gradientTransform="translate(-135.36887,-63.983956)">
      <stop
         stop-color="#FFD476"
         id="stop3-4"
         offset="0.17607909"
         style="stop-color:#bf76ff;stop-opacity:1;" />
      <stop
         offset="0.43454424"
         stop-color="#FFCC5C"
         id="stop4"
         style="stop-color:#a35cff;stop-opacity:1;" />
      <stop
         offset="1"
         stop-color="#B36F02"
         id="stop5"
         style="stop-color:#2c02b3;stop-opacity:1;" />
    </linearGradient>
    <linearGradient
       inkscape:collect="always"
       xlink:href="#linearGradient14"
       id="linearGradient15"
       x1="159.5"
       y1="128"
       x2="235.92986"
       y2="128"
       gradientUnits="userSpaceOnUse"
       gradientTransform="translate(-135.36887,-63.983956)" />
    <linearGradient
       id="linearGradient14"
       inkscape:collect="always">
      <stop
         style="stop-color:#ffffff;stop-opacity:1;"
         offset="0"
         id="stop14" />
      <stop
         style="stop-color:#ffffff;stop-opacity:0.3793121;"
         offset="1"
         id="stop15" />
    </linearGradient>
  </defs>
  <path
     d="m 97.656125,21.198044 c -4.194,-0.8559 -9.663,-1.182 -13.322,-1.182 -30.756,0 -51.068,18.138 -51.068,45.855 0,17.852 7.22026,27.8042 8.20521,27.11906 l 5.93879,-4.13106 c -6.13573,5.21819 -11.595,7.663 -20.106,10.353 -1.974,0.611 -2.673,1.955996 -2.673,3.382996 0,3.016 2.631,5.421 6.25,5.421 5.674,0 15.542,-8.069996 19.531,-12.268996 16.611,-17.852 6.784,-45.039 25.123,-52.05 1.398,-0.53 2.631,0.938 1.233,2.283 -14.186,14.062 -2.22,32.159 -18.585,49.767 -1.233,1.386 -0.576,3.016 0.904,3.261 1.193,0.204 3.085,0.326 4.894,0.326 20.065,0 29.727,-13.858 29.727,-33.341 0,-6.522 -1.603,-14.144 -1.603,-20.135 0,-6.563 0.534,-13.9402 6.866,-19.8096 1.727005,-1.6711 1.481005,-4.1982 -1.315,-4.8504 z"
     fill="url(#paint0_linear_3753_254)"
     id="path1-8"
     style="fill:url(#paint0_linear_3753_254);stroke:url(#linearGradient15);stroke-opacity:1"
     sodipodi:nodetypes="csssccsscccccssscc" />
</svg>
